<svg width="122" height="31" viewBox="0 0 122 31" fill="none" xmlns="http://www.w3.org/2000/svg">
<symbol id="logo">
<path d="M0.0947266 25.14V6.52185H6.73109C8.17957 6.52185 9.37958 6.78549 10.3311 7.31276C11.2826 7.84003 11.9947 8.56124 12.4675 9.4764C12.9402 10.3855 13.1765 11.4097 13.1765 12.5491C13.1765 13.6946 12.9372 14.7249 12.4584 15.64C11.9856 16.5491 11.2705 17.2703 10.3129 17.8037C9.36139 18.3309 8.16442 18.5946 6.722 18.5946H2.15836V16.2128H6.46745C7.38261 16.2128 8.12503 16.0552 8.69473 15.74C9.26442 15.4188 9.68261 14.9825 9.94927 14.4309C10.2159 13.8794 10.3493 13.2522 10.3493 12.5491C10.3493 11.8461 10.2159 11.2219 9.94927 10.6764C9.68261 10.1309 9.26139 9.70367 8.68564 9.39458C8.11594 9.08549 7.36442 8.93094 6.43109 8.93094H2.90382V25.14H0.0947266Z" fill="white"/>
<path d="M21.3267 25.4219C19.951 25.4219 18.7661 25.1279 17.7722 24.54C16.7843 23.9461 16.0207 23.1128 15.4813 22.04C14.9479 20.9612 14.6813 19.6976 14.6813 18.2491C14.6813 16.8188 14.9479 15.5582 15.4813 14.4673C16.0207 13.3764 16.7722 12.5249 17.7358 11.9128C18.7055 11.3006 19.8388 10.9946 21.1358 10.9946C21.9237 10.9946 22.6873 11.1249 23.4267 11.3855C24.1661 11.6461 24.8298 12.0552 25.4176 12.6128C26.0055 13.1703 26.4692 13.8946 26.8085 14.7855C27.1479 15.6703 27.3176 16.7461 27.3176 18.0128V18.9764H16.2176V16.94H24.654C24.654 16.2249 24.5085 15.5915 24.2176 15.04C23.9267 14.4825 23.5176 14.0431 22.9904 13.7219C22.4692 13.4006 21.857 13.24 21.154 13.24C20.3904 13.24 19.7237 13.4279 19.154 13.8037C18.5904 14.1734 18.154 14.6582 17.8449 15.2582C17.5419 15.8522 17.3904 16.4976 17.3904 17.1946V18.7855C17.3904 19.7188 17.554 20.5128 17.8813 21.1673C18.2146 21.8219 18.6782 22.3219 19.2722 22.6673C19.8661 23.0067 20.5601 23.1764 21.354 23.1764C21.8692 23.1764 22.3389 23.1037 22.7631 22.9582C23.1873 22.8067 23.554 22.5825 23.8631 22.2855C24.1722 21.9885 24.4085 21.6219 24.5722 21.1855L27.1449 21.6491C26.9389 22.4067 26.5692 23.0703 26.0358 23.64C25.5085 24.2037 24.8449 24.6431 24.0449 24.9582C23.251 25.2673 22.3449 25.4219 21.3267 25.4219Z" fill="white"/>
<path d="M29.5655 25.14V11.1764H32.1928V13.3946H32.3383C32.5928 12.6431 33.0413 12.0522 33.6837 11.6219C34.3322 11.1855 35.0655 10.9673 35.8837 10.9673C36.0534 10.9673 36.2534 10.9734 36.4837 10.9855C36.7201 10.9976 36.9049 11.0128 37.0383 11.0309V13.6309C36.9292 13.6006 36.7352 13.5673 36.4565 13.5309C36.1777 13.4885 35.8989 13.4673 35.6201 13.4673C34.9777 13.4673 34.4049 13.6037 33.9019 13.8764C33.4049 14.1431 33.011 14.5158 32.7201 14.9946C32.4292 15.4673 32.2837 16.0067 32.2837 16.6128V25.14H29.5655Z" fill="white"/>
<path d="M47.468 19.3491V11.1764H50.1953V25.14H47.5225V22.7219H47.3771C47.0559 23.4673 46.5407 24.0885 45.8316 24.5855C45.1286 25.0764 44.2528 25.3219 43.2044 25.3219C42.3074 25.3219 41.5135 25.1249 40.8225 24.7309C40.1377 24.3309 39.5983 23.74 39.2044 22.9582C38.8165 22.1764 38.6225 21.2097 38.6225 20.0582V11.1764H41.3407V19.7309C41.3407 20.6825 41.6044 21.44 42.1316 22.0037C42.6589 22.5673 43.3438 22.8491 44.1862 22.8491C44.6953 22.8491 45.2013 22.7219 45.7044 22.4673C46.2135 22.2128 46.6347 21.8279 46.968 21.3128C47.3074 20.7976 47.4741 20.1431 47.468 19.3491Z" fill="white"/>
<path d="M53.0795 25.14V11.1764H55.6886V13.4491H55.8614C56.1523 12.6794 56.628 12.0794 57.2886 11.6491C57.9492 11.2128 58.7402 10.9946 59.6614 10.9946C60.5947 10.9946 61.3765 11.2128 62.0068 11.6491C62.6432 12.0855 63.1129 12.6855 63.4159 13.4491H63.5614C63.8947 12.7037 64.425 12.1097 65.1523 11.6673C65.8795 11.2188 66.7462 10.9946 67.7523 10.9946C69.0189 10.9946 70.0523 11.3915 70.8523 12.1855C71.6583 12.9794 72.0614 14.1764 72.0614 15.7764V25.14H69.3432V16.0309C69.3432 15.0855 69.0856 14.4006 68.5705 13.9764C68.0553 13.5522 67.4402 13.34 66.725 13.34C65.8402 13.34 65.1523 13.6128 64.6614 14.1582C64.1705 14.6976 63.925 15.3915 63.925 16.24V25.14H61.2159V15.8582C61.2159 15.1006 60.9795 14.4915 60.5068 14.0309C60.0341 13.5703 59.4189 13.34 58.6614 13.34C58.1462 13.34 57.6705 13.4764 57.2341 13.7491C56.8038 14.0158 56.4553 14.3885 56.1886 14.8673C55.928 15.3461 55.7977 15.9006 55.7977 16.5309V25.14H53.0795Z" fill="white"/>
<path d="M77.6547 16.8491V25.14H74.9365V11.1764H77.5456V13.4491H77.7184C78.0396 12.7097 78.5426 12.1158 79.2275 11.6673C79.9184 11.2188 80.7881 10.9946 81.8365 10.9946C82.7881 10.9946 83.6214 11.1946 84.3365 11.5946C85.0517 11.9885 85.6062 12.5764 86.0002 13.3582C86.3941 14.14 86.5911 15.1067 86.5911 16.2582V25.14H83.8729V16.5855C83.8729 15.5734 83.6093 14.7825 83.082 14.2128C82.5547 13.637 81.8305 13.3491 80.9093 13.3491C80.279 13.3491 79.7184 13.4855 79.2275 13.7582C78.7426 14.0309 78.3578 14.4309 78.0729 14.9582C77.7941 15.4794 77.6547 16.1097 77.6547 16.8491Z" fill="white"/>
<path d="M93.5322 25.4491C92.6473 25.4491 91.8473 25.2855 91.1322 24.9582C90.417 24.6249 89.8504 24.1431 89.4322 23.5128C89.0201 22.8825 88.814 22.1097 88.814 21.1946C88.814 20.4067 88.9655 19.7582 89.2685 19.2491C89.5716 18.74 89.9807 18.337 90.4958 18.04C91.011 17.7431 91.5867 17.5188 92.2231 17.3673C92.8595 17.2158 93.5079 17.1006 94.1685 17.0219C95.0049 16.9249 95.6837 16.8461 96.2049 16.7855C96.7261 16.7188 97.1049 16.6128 97.3413 16.4673C97.5776 16.3219 97.6958 16.0855 97.6958 15.7582V15.6946C97.6958 14.9006 97.4716 14.2855 97.0231 13.8491C96.5807 13.4128 95.9201 13.1946 95.0413 13.1946C94.1261 13.1946 93.4049 13.3976 92.8776 13.8037C92.3564 14.2037 91.9958 14.6491 91.7958 15.14L89.2413 14.5582C89.5443 13.7097 89.9867 13.0249 90.5686 12.5037C91.1564 11.9764 91.8322 11.5946 92.5958 11.3582C93.3595 11.1158 94.1625 10.9946 95.0049 10.9946C95.5625 10.9946 96.1534 11.0612 96.7776 11.1946C97.4079 11.3219 97.9958 11.5582 98.5413 11.9037C99.0928 12.2491 99.5443 12.7431 99.8958 13.3855C100.247 14.0219 100.423 14.8491 100.423 15.8673V25.14H97.7685V23.2309H97.6595C97.4837 23.5825 97.2201 23.9279 96.8685 24.2673C96.517 24.6067 96.0655 24.8885 95.514 25.1128C94.9625 25.337 94.3019 25.4491 93.5322 25.4491ZM94.1231 23.2673C94.8746 23.2673 95.517 23.1188 96.0504 22.8219C96.5898 22.5249 96.9989 22.137 97.2776 21.6582C97.5625 21.1734 97.7049 20.6552 97.7049 20.1037V18.3037C97.6079 18.4006 97.4201 18.4915 97.1413 18.5764C96.8685 18.6552 96.5564 18.7249 96.2049 18.7855C95.8534 18.84 95.511 18.8915 95.1776 18.94C94.8443 18.9825 94.5655 19.0188 94.3413 19.0491C93.814 19.1158 93.3322 19.2279 92.8958 19.3855C92.4655 19.5431 92.1201 19.7703 91.8595 20.0673C91.6049 20.3582 91.4776 20.7461 91.4776 21.2309C91.4776 21.9037 91.7261 22.4128 92.2231 22.7582C92.7201 23.0976 93.3534 23.2673 94.1231 23.2673Z" fill="white"/>
<path d="M113.739 14.5855L111.276 15.0219C111.173 14.7067 111.009 14.4067 110.785 14.1219C110.566 13.837 110.269 13.6037 109.894 13.4219C109.518 13.24 109.048 13.1491 108.485 13.1491C107.715 13.1491 107.073 13.3219 106.557 13.6673C106.042 14.0067 105.785 14.4461 105.785 14.9855C105.785 15.4522 105.957 15.8279 106.303 16.1128C106.648 16.3976 107.206 16.6309 107.976 16.8128L110.194 17.3219C111.479 17.6188 112.436 18.0764 113.066 18.6946C113.697 19.3128 114.012 20.1158 114.012 21.1037C114.012 21.94 113.769 22.6855 113.285 23.34C112.806 23.9885 112.136 24.4976 111.276 24.8673C110.421 25.237 109.43 25.4219 108.303 25.4219C106.739 25.4219 105.463 25.0885 104.476 24.4219C103.488 23.7491 102.882 22.7946 102.657 21.5582L105.285 21.1582C105.448 21.8431 105.785 22.3612 106.294 22.7128C106.803 23.0582 107.466 23.2309 108.285 23.2309C109.176 23.2309 109.888 23.0461 110.421 22.6764C110.954 22.3006 111.221 21.8431 111.221 21.3037C111.221 20.8673 111.057 20.5006 110.73 20.2037C110.409 19.9067 109.915 19.6825 109.248 19.5309L106.885 19.0128C105.582 18.7158 104.618 18.2431 103.994 17.5946C103.376 16.9461 103.066 16.1249 103.066 15.1309C103.066 14.3067 103.297 13.5855 103.757 12.9673C104.218 12.3491 104.854 11.8673 105.666 11.5219C106.479 11.1703 107.409 10.9946 108.457 10.9946C109.966 10.9946 111.154 11.3219 112.021 11.9764C112.888 12.6249 113.46 13.4946 113.739 14.5855Z" fill="white"/>
<path d="M99.1052 9.5V7.9L109.505 1.5L119.905 7.9V29.5H97.5052" stroke="white" stroke-width="2.24"/></symbol>

</svg>
